<mxfile modified="2022-12-14T08:56:17.788Z" host="app.diagrams.net" agent="5.0 (X11; Linux x86_64) AppleWebKit/537.36 (KHTML, like Gecko) Chrome/108.0.0.0 Safari/537.36" etag="MRPJpVJxPnIy4VpzJjly" version="20.6.2" type="github">
  <diagram id="f106602c-feb2-e66a-4537-3a34d633f6aa" name="Page-1">
    <mxGraphModel dx="1673" dy="908" grid="1" gridSize="10" guides="1" tooltips="1" connect="1" arrows="1" fold="1" page="1" pageScale="1" pageWidth="1169" pageHeight="827" background="none" math="0" shadow="0">
      <root>
        <mxCell id="0" />
        <mxCell id="1" parent="0" />
        <mxCell id="14" value="&lt;b&gt;&lt;font style=&quot;font-size: 18px;&quot;&gt;Front End&lt;/font&gt;&lt;/b&gt;" style="fillColor=#F6F6F6;strokeColor=none;shadow=0;gradientColor=none;fontSize=14;align=left;spacing=10;fontColor=#717171;9E9E9E;verticalAlign=top;spacingTop=-4;fontStyle=0;spacingLeft=40;html=1;" parent="1" vertex="1">
          <mxGeometry x="954" y="132.5" width="174.5" height="450" as="geometry" />
        </mxCell>
        <mxCell id="2" value="Coupon Management System" style="fillColor=#4DA1F5;strokeColor=none;shadow=1;gradientColor=none;fontSize=14;align=left;spacingLeft=50;fontColor=#ffffff;html=1;" parent="1" vertex="1">
          <mxGeometry x="34.5" y="40" width="1100" height="40" as="geometry" />
        </mxCell>
        <mxCell id="16" value="" style="rounded=1;absoluteArcSize=1;arcSize=2;html=1;strokeColor=none;gradientColor=none;shadow=0;dashed=0;strokeColor=none;fontSize=12;fontColor=#9E9E9E;align=left;verticalAlign=top;spacing=10;spacingTop=-4;fillColor=#E0E0E0;" parent="1" vertex="1">
          <mxGeometry x="40" y="600" width="1100" height="30" as="geometry" />
        </mxCell>
        <mxCell id="391" value="&lt;b&gt;&lt;font style=&quot;font-size: 20px;&quot;&gt;BackEnd&lt;/font&gt;&lt;/b&gt;" style="rounded=1;absoluteArcSize=1;arcSize=2;html=1;strokeColor=none;gradientColor=none;shadow=0;dashed=0;strokeColor=none;fontSize=12;fontColor=#9E9E9E;align=left;verticalAlign=top;spacing=10;spacingTop=-4;fillColor=#EFEBE9;whiteSpace=wrap;" parent="1" vertex="1">
          <mxGeometry x="80" y="100" width="770" height="470" as="geometry" />
        </mxCell>
        <mxCell id="394" value="&lt;b&gt;&lt;font style=&quot;font-size: 14px;&quot;&gt;DB&lt;/font&gt;&lt;/b&gt;" style="strokeColor=#dddddd;fillColor=#ffffff;shadow=1;strokeWidth=1;rounded=1;absoluteArcSize=1;arcSize=2;labelPosition=center;verticalLabelPosition=middle;align=center;verticalAlign=bottom;spacingLeft=0;fontColor=#999999;fontSize=12;whiteSpace=wrap;spacingBottom=2;html=1;" parent="1" vertex="1">
          <mxGeometry x="120" y="200" width="70" height="100" as="geometry" />
        </mxCell>
        <mxCell id="395" value="" style="dashed=0;html=1;fillColor=#757575;strokeColor=none;shape=mxgraph.gcp2.storage;part=1;" parent="394" vertex="1">
          <mxGeometry x="0.5" width="50" height="40" relative="1" as="geometry">
            <mxPoint x="-25" y="15" as="offset" />
          </mxGeometry>
        </mxCell>
        <mxCell id="410" style="edgeStyle=orthogonalEdgeStyle;rounded=0;html=1;startArrow=blockThin;startFill=1;endArrow=none;endFill=0;jettySize=auto;orthogonalLoop=1;strokeWidth=2;fontSize=10;fontColor=#999999;dashed=0;strokeColor=#4284F3;labelBackgroundColor=none;endSize=4;startSize=4;elbow=vertical;curved=1;entryX=0;entryY=0.25;entryDx=0;entryDy=0;" parent="1" source="396" target="398" edge="1">
          <mxGeometry relative="1" as="geometry">
            <Array as="points">
              <mxPoint x="830" y="260" />
              <mxPoint x="830" y="330" />
              <mxPoint x="870" y="330" />
            </Array>
          </mxGeometry>
        </mxCell>
        <mxCell id="-wveLV88Ad8TdXlZmOLv-417" style="edgeStyle=orthogonalEdgeStyle;curved=1;rounded=0;orthogonalLoop=1;jettySize=auto;html=1;entryX=1;entryY=0.5;entryDx=0;entryDy=0;fontSize=18;fontColor=#FFFFFF;endArrow=classic;endFill=1;elbow=vertical;strokeColor=#4284F3;strokeWidth=2;startArrow=none;startFill=0;" edge="1" parent="1" source="396" target="-wveLV88Ad8TdXlZmOLv-416">
          <mxGeometry relative="1" as="geometry" />
        </mxCell>
        <mxCell id="396" value="&lt;font size=&quot;1&quot; color=&quot;#ffffff&quot;&gt;&lt;b style=&quot;font-size: 18px;&quot;&gt;Router&lt;/b&gt;&lt;/font&gt;" style="strokeColor=#BD7000;fillColor=#f0a30a;shadow=1;strokeWidth=1;rounded=1;absoluteArcSize=1;arcSize=2;fontSize=17;align=center;html=1;fontColor=#000000;" parent="1" vertex="1">
          <mxGeometry x="680" y="230" width="120" height="60" as="geometry" />
        </mxCell>
        <mxCell id="411" value="" style="edgeStyle=elbowEdgeStyle;rounded=0;elbow=vertical;html=1;startArrow=blockThin;startFill=1;endArrow=blockThin;endFill=1;jettySize=auto;orthogonalLoop=1;strokeWidth=2;fontSize=12;fontColor=#999999;dashed=0;strokeColor=#9E9E9E;labelBackgroundColor=#ffffff;endSize=4;startSize=4;verticalAlign=bottom;entryX=0.042;entryY=0.528;entryDx=0;entryDy=0;entryPerimeter=0;" parent="1" source="398" target="-wveLV88Ad8TdXlZmOLv-414" edge="1">
          <mxGeometry y="22" relative="1" as="geometry">
            <mxPoint as="offset" />
            <mxPoint x="650" y="363" as="targetPoint" />
          </mxGeometry>
        </mxCell>
        <mxCell id="398" value="Server" style="strokeColor=#dddddd;fillColor=#ffffff;shadow=1;strokeWidth=1;rounded=1;absoluteArcSize=1;arcSize=2;labelPosition=center;verticalLabelPosition=middle;align=center;verticalAlign=bottom;spacingLeft=0;fontColor=#999999;fontSize=12;whiteSpace=wrap;spacingBottom=2;html=1;" parent="1" vertex="1">
          <mxGeometry x="866" y="310" width="70" height="85" as="geometry" />
        </mxCell>
        <mxCell id="399" value="" style="dashed=0;html=1;fillColor=#757575;strokeColor=none;shape=mxgraph.gcp2.gateway_icon;part=1;" parent="398" vertex="1">
          <mxGeometry x="0.5" width="50" height="22" relative="1" as="geometry">
            <mxPoint x="-25" y="24" as="offset" />
          </mxGeometry>
        </mxCell>
        <mxCell id="-wveLV88Ad8TdXlZmOLv-414" value="" style="verticalLabelPosition=bottom;verticalAlign=top;html=1;shadow=0;dashed=0;strokeWidth=1;shape=mxgraph.android.phone2;strokeColor=#c0c0c0;fontSize=14;" vertex="1" parent="1">
          <mxGeometry x="984" y="236.25" width="115" height="242.5" as="geometry" />
        </mxCell>
        <mxCell id="-wveLV88Ad8TdXlZmOLv-420" style="rounded=0;orthogonalLoop=1;jettySize=auto;html=1;entryX=1;entryY=0.75;entryDx=0;entryDy=0;strokeColor=#4284F3;strokeWidth=2;fontSize=18;fontColor=#FFFFFF;startArrow=none;startFill=0;endArrow=classic;endFill=1;elbow=vertical;" edge="1" parent="1" source="-wveLV88Ad8TdXlZmOLv-416" target="-wveLV88Ad8TdXlZmOLv-419">
          <mxGeometry relative="1" as="geometry" />
        </mxCell>
        <mxCell id="-wveLV88Ad8TdXlZmOLv-422" style="edgeStyle=none;rounded=0;orthogonalLoop=1;jettySize=auto;html=1;strokeColor=#4284F3;strokeWidth=2;fontSize=18;fontColor=#FFFFFF;startArrow=none;startFill=0;endArrow=classic;endFill=1;elbow=vertical;" edge="1" parent="1" source="-wveLV88Ad8TdXlZmOLv-416" target="-wveLV88Ad8TdXlZmOLv-418">
          <mxGeometry relative="1" as="geometry" />
        </mxCell>
        <mxCell id="-wveLV88Ad8TdXlZmOLv-416" value="&lt;font size=&quot;1&quot; color=&quot;#ffffff&quot;&gt;&lt;b style=&quot;font-size: 18px;&quot;&gt;Controller&lt;/b&gt;&lt;/font&gt;" style="strokeColor=#006EAF;fillColor=#1ba1e2;shadow=1;strokeWidth=1;rounded=1;absoluteArcSize=1;arcSize=2;fontSize=17;align=center;html=1;fontColor=#ffffff;" vertex="1" parent="1">
          <mxGeometry x="490" y="280" width="120" height="60" as="geometry" />
        </mxCell>
        <mxCell id="-wveLV88Ad8TdXlZmOLv-423" style="edgeStyle=orthogonalEdgeStyle;rounded=0;orthogonalLoop=1;jettySize=auto;html=1;exitX=1;exitY=0.5;exitDx=0;exitDy=0;entryX=0;entryY=0.5;entryDx=0;entryDy=0;strokeColor=#4284F3;strokeWidth=2;fontSize=18;fontColor=#FFFFFF;startArrow=none;startFill=0;endArrow=classic;endFill=1;elbow=vertical;curved=1;" edge="1" parent="1" source="-wveLV88Ad8TdXlZmOLv-418" target="398">
          <mxGeometry relative="1" as="geometry">
            <Array as="points">
              <mxPoint x="670" y="444" />
              <mxPoint x="670" y="353" />
            </Array>
          </mxGeometry>
        </mxCell>
        <mxCell id="-wveLV88Ad8TdXlZmOLv-418" value="&lt;font size=&quot;1&quot; color=&quot;#ffffff&quot;&gt;&lt;b style=&quot;font-size: 18px;&quot;&gt;View&lt;/b&gt;&lt;/font&gt;" style="strokeColor=#A50040;fillColor=#d80073;shadow=1;strokeWidth=1;rounded=1;absoluteArcSize=1;arcSize=2;fontSize=17;align=center;html=1;fontColor=#ffffff;" vertex="1" parent="1">
          <mxGeometry x="310" y="418.75" width="120" height="60" as="geometry" />
        </mxCell>
        <mxCell id="-wveLV88Ad8TdXlZmOLv-421" style="edgeStyle=none;rounded=0;orthogonalLoop=1;jettySize=auto;html=1;entryX=0;entryY=0.75;entryDx=0;entryDy=0;strokeColor=#4284F3;strokeWidth=2;fontSize=18;fontColor=#FFFFFF;startArrow=none;startFill=0;endArrow=classic;endFill=1;elbow=vertical;exitX=0.75;exitY=1;exitDx=0;exitDy=0;" edge="1" parent="1" source="-wveLV88Ad8TdXlZmOLv-419" target="-wveLV88Ad8TdXlZmOLv-416">
          <mxGeometry relative="1" as="geometry">
            <mxPoint x="370" y="270" as="sourcePoint" />
          </mxGeometry>
        </mxCell>
        <mxCell id="-wveLV88Ad8TdXlZmOLv-424" style="rounded=0;orthogonalLoop=1;jettySize=auto;html=1;exitX=0;exitY=0.5;exitDx=0;exitDy=0;strokeColor=#4284F3;strokeWidth=2;fontSize=14;fontColor=#FFFFFF;startArrow=none;startFill=0;endArrow=classic;endFill=1;elbow=vertical;" edge="1" parent="1">
          <mxGeometry relative="1" as="geometry">
            <mxPoint x="280" y="231" as="sourcePoint" />
            <mxPoint x="190" y="231" as="targetPoint" />
          </mxGeometry>
        </mxCell>
        <mxCell id="-wveLV88Ad8TdXlZmOLv-419" value="&lt;font size=&quot;1&quot; color=&quot;#ffffff&quot;&gt;&lt;b style=&quot;font-size: 18px;&quot;&gt;Model&lt;/b&gt;&lt;/font&gt;" style="strokeColor=#C73500;fillColor=#fa6800;shadow=1;strokeWidth=1;rounded=1;absoluteArcSize=1;arcSize=2;fontSize=17;align=center;html=1;fontColor=#000000;" vertex="1" parent="1">
          <mxGeometry x="280" y="210" width="120" height="60" as="geometry" />
        </mxCell>
        <mxCell id="-wveLV88Ad8TdXlZmOLv-425" style="rounded=0;orthogonalLoop=1;jettySize=auto;html=1;exitX=0;exitY=0.5;exitDx=0;exitDy=0;strokeColor=#4284F3;strokeWidth=2;fontSize=14;fontColor=#FFFFFF;startArrow=classic;startFill=1;endArrow=none;endFill=0;elbow=vertical;" edge="1" parent="1">
          <mxGeometry relative="1" as="geometry">
            <mxPoint x="280" y="249.5" as="sourcePoint" />
            <mxPoint x="190" y="249.5" as="targetPoint" />
          </mxGeometry>
        </mxCell>
      </root>
    </mxGraphModel>
  </diagram>
</mxfile>
